<?xml version="1.0" standalone="no"?>
<!DOCTYPE svg PUBLIC "-//W3C//DTD SVG 1.1//EN" "http://www.w3.org/Graphics/SVG/1.1/DTD/svg11.dtd" >
<svg xmlns="http://www.w3.org/2000/svg" xmlns:xlink="http://www.w3.org/1999/xlink" version="1.1">
<metadata></metadata>
<defs>
<font id="kg_a_little_swagregular" horiz-adv-x="762" >
<font-face units-per-em="2048" ascent="1638" descent="-410" />
<missing-glyph horiz-adv-x="400" />
<glyph horiz-adv-x="0" />
<glyph unicode="&#xd;" horiz-adv-x="400" />
<glyph unicode=" "  horiz-adv-x="400" />
<glyph unicode="&#x09;" horiz-adv-x="400" />
<glyph unicode="&#xa0;" horiz-adv-x="400" />
<glyph unicode="!" d="M52 -374v1638h658v-1638l-330 216zM340 34q0 -26 26 -26q28 0 28 26q0 28 -28 28q-26 0 -26 -28zM346 158q-2 -16 16 -17t24 15v528q0 8 -6 12t-13 4t-14 -4t-7 -10v-528z" />
<glyph unicode="&#x22;" d="M52 -374v1638h658v-1638l-330 216zM274 709q-2 -7 6 -13q14 -10 16 -34t-8 -40t5 -28t25 6q16 32 14 65t-18 49q-6 8 -16 9t-16 -3t-8 -11zM360 700q12 -10 15 -33t-7 -39q-10 -18 5 -29t25 7q16 32 14 65t-18 49q-16 14 -33 4t-1 -24z" />
<glyph unicode="#" d="M52 -374v1638h658v-1638l-330 216zM225 354q-1 -18 15 -24l52 -2v-70q0 -16 20 -17t20 13v74h50v-72q0 -16 20 -17t20 13v76h62q8 0 12 6t4 13t-4 14t-10 7h-62v50h62q8 0 12 6t4 13t-4 14t-10 7h-64v62q2 16 -15 17t-25 -15v-64h-50v64q2 16 -15 17t-25 -15v-66l-50 2 q-16 2 -17 -16t15 -24l52 -2v-50l-52 2q-16 2 -17 -16zM334 368v50h50v-50h-50z" />
<glyph unicode="$" d="M52 -374v1638h658v-1638l-330 216zM178 200q-2 -44 11 -79t36 -60t54 -40t65 -21l2 -44q-2 -18 15 -19t25 15l-2 46q68 -2 125 33t67 105q8 56 -4 96t-40 69t-67 49t-83 38l-2 268q52 -16 93 -62t41 -104q0 -18 22 -18t22 18q0 38 -15 72t-40 61t-58 46t-65 27v26 q0 8 -6 12t-13 4t-14 -4t-7 -10v-22q-68 0 -113 -45t-45 -111q0 -30 14 -59t37 -53t52 -42t57 -30l2 -324q-52 12 -90 52t-34 112q0 12 -6 17t-14 4t-15 -7t-7 -16zM226 550q0 56 33 83t81 27l2 -254q-46 24 -81 61t-35 83zM382 346q34 -16 65 -34t52 -43t32 -56t5 -73 q-8 -52 -53 -80t-99 -26z" />
<glyph unicode="%" d="M88 1120q4 10 0 18t0 18h124v-36h-124zM244 1120q4 10 0 18t0 18h124v-36h-124zM398 1120q4 10 0 18t0 18h124v-36h-124zM553 1138q-3 8 1 18h124v-36h-124q2 10 -1 18z" />
<glyph unicode="&#x26;" d="M52 -374v1638h658v-1638l-330 216zM204 115q2 -51 24 -83q20 -30 49 -38t61 0t60 26t44 40l34 -66q10 -16 27 -6t5 32q-10 18 -18 35t-20 39q12 26 21 61t15 71t9 69t3 57q0 20 -20 22t-22 -18q-4 -70 -10 -114t-20 -92q-28 70 -53 140t-47 140q20 50 32 99t12 88t-13 62 t-45 21q-40 -4 -52 -35t-11 -74t12 -87t21 -72q-30 -42 -53 -98t-35 -112t-10 -107zM248 133q0 43 10 89t26 89t34 69q12 -36 27 -78t30 -81t27 -71t20 -48q-12 -22 -34 -40t-46 -26t-46 -3t-34 31q-14 26 -14 69zM308 581q-2 31 4 54t26 23q12 0 13 -25t-3 -55t-12 -57 t-12 -35q-4 8 -9 36t-7 59z" />
<glyph unicode="'" d="M52 -374v1638h658v-1638l-330 216zM334 697q-2 -7 6 -13q14 -10 16 -34t-8 -40t5 -28t25 6q16 32 14 65t-18 49q-6 8 -16 9t-16 -3t-8 -11z" />
<glyph unicode="(" horiz-adv-x="1766" d="M42 1272q0 16 19 12t19 -20q-10 -40 0 -74t32 -60t53 -43t65 -25q70 -16 127 -10t112 20t111 30t126 24q40 4 88 -3t94 -25q96 62 185 99t185 47q72 8 129 2t106 -18t94 -28t91 -30q22 -6 65 -16t119 -2q10 0 14 -5t2 -12t-7 -13t-13 -4q-84 -4 -123 3t-59 13 q-46 12 -86 29t-88 30t-108 19t-142 -4q-158 -18 -324 -130q24 -18 32 -42t3 -45t-21 -36t-42 -15q-28 0 -45 14t-23 34t-1 43t23 41q-32 14 -70 20t-72 2q-72 -6 -127 -24t-110 -34t-117 -21t-144 13t-133 78t-39 166zM867 1008q1 -14 10 -24t27 -6q30 8 26 33t-38 43 q-12 -4 -19 -18t-6 -28z" />
<glyph unicode=")" horiz-adv-x="1794" d="M-70 1135q-2 7 2 12t14 5q76 -8 119 2t65 16q46 14 90 30t94 28t107 18t129 -2q96 -10 185 -47t185 -99q46 18 94 25t88 3q68 -8 125 -24t112 -30t112 -20t127 10q34 8 65 25t53 43t31 60t1 74q0 16 19 20t19 -12q12 -106 -39 -166t-133 -78t-144 -13t-117 21t-110 34 t-127 24q-34 4 -72 -2t-70 -20q18 -18 23 -41t-1 -43t-24 -34t-44 -14t-43 15t-21 36t4 45t32 42q-166 112 -324 130q-82 10 -142 4t-108 -19t-89 -30t-85 -29q-20 -6 -59 -13t-123 -3q-8 -2 -13 4t-7 13zM878 1011q-4 -25 26 -33q18 -4 27 6t10 24t-6 28t-19 18 q-34 -18 -38 -43z" />
<glyph unicode="*" d="M52 -374v1638h658v-1638l-330 216zM171 410q1 -8 5 -14t12 -4l138 8l-58 -140q-10 -16 6 -24t28 6l60 140l96 -116q16 -10 28 3t0 25l-92 110l152 10q16 2 13 22t-21 18l-150 -10l52 128q4 6 0 12t-11 9t-14 3t-9 -6l-56 -132l-92 112q-10 10 -25 -4t-3 -26l82 -100 l-130 -8q-6 0 -9 -7t-2 -15z" />
<glyph unicode="+" horiz-adv-x="4764" d="M106 1272q0 16 19 12t19 -20q-10 -40 1 -74t33 -60t54 -44t66 -24q66 -14 119 -5t107 25t112 33t134 19q54 2 95 -8t87 -28q116 76 224 112t232 40q42 0 140 1t232 1h292h322h323h292t232 -1t141 -1q126 -2 234 -39t228 -113q46 18 87 28t95 8q74 -2 133 -19t113 -33 t107 -25t119 5q34 6 66 24t54 44t32 60t2 74q0 16 19 20t19 -12q6 -52 -7 -94t-38 -73t-58 -51t-69 -26q-82 -16 -141 -6t-113 27t-113 34t-141 17q-66 0 -132 -28q18 -18 23 -41t-1 -43t-24 -34t-44 -14t-43 15t-21 36t4 45t32 42q-110 74 -213 105t-207 33h-1948 q-110 2 -219 -29t-225 -109q24 -18 32 -42t3 -45t-21 -36t-42 -15q-28 0 -45 14t-23 34t-1 43t23 41q-66 28 -132 28q-82 0 -141 -17t-113 -34t-113 -27t-141 6q-36 6 -69 26t-58 51t-38 73t-7 94zM927 1010q1 -14 12 -25t29 -7q28 4 23 32t-35 44q-16 -4 -23 -17t-6 -27z M3805 1010q-5 -28 23 -32q18 -4 28 7t12 25t-5 27t-23 17q-30 -16 -35 -44z" />
<glyph unicode="," d="M52 -374v1638h658v-1638l-330 216zM339 61q-1 -7 7 -13q12 -10 15 -34t-7 -40t5 -28t25 6q16 32 14 65t-18 49q-8 8 -17 9t-16 -3t-8 -11z" />
<glyph unicode="-" d="M52 -374v1638h658v-1638l-330 216zM253 354q-1 -18 15 -24h184q16 0 17 20t-13 20h-186q-16 2 -17 -16z" />
<glyph unicode="." d="M52 -374v1638h658v-1638l-330 216zM348 34q0 -26 26 -26q28 0 28 26q0 28 -28 28q-26 0 -26 -28z" />
<glyph unicode="/" horiz-adv-x="6166" d="M106 1272q0 16 19 12t19 -20q-10 -40 1 -74t33 -60t54 -44t66 -24q66 -14 119 -5t107 25t112 33t134 19q54 2 95 -8t87 -28q116 76 224 112t232 40q34 0 143 1t273 1h370h434t466 1t466 0t435 -1h370t273 -1t144 -1q126 -2 234 -39t228 -113q46 18 87 28t95 8 q74 -2 133 -19t113 -33t107 -25t119 5q34 6 66 24t54 44t32 60t2 74q0 16 19 20t19 -12q6 -52 -7 -94t-38 -73t-58 -51t-69 -26q-82 -16 -141 -6t-113 27t-113 34t-141 17q-66 0 -132 -28q18 -18 23 -41t-1 -43t-24 -34t-44 -14t-43 15t-21 36t4 45t32 42q-110 74 -213 105 t-207 33h-3348q-110 2 -219 -29t-225 -109q24 -18 32 -42t3 -45t-21 -36t-42 -15q-28 0 -45 14t-23 34t-1 43t23 41q-66 28 -132 28q-82 0 -141 -17t-113 -34t-113 -27t-141 6q-36 6 -69 26t-58 51t-38 73t-7 94zM927 1010q1 -14 12 -25t29 -7q28 4 23 32t-35 44 q-16 -4 -23 -17t-6 -27zM5205 1010q-5 -28 23 -32q18 -4 28 7t12 25t-5 27t-23 17q-30 -16 -35 -44z" />
<glyph unicode="0" d="M52 -374v1638h658v-1638l-330 216zM204 338q-4 -166 41 -255t127 -85q48 2 82 27t57 70t35 105t16 130q2 74 -7 141t-30 119t-54 82t-75 30q-52 -2 -89 -35t-59 -86t-33 -117t-11 -126zM246 338q0 42 7 97t24 104t46 83t73 36q28 0 52 -24t40 -67t25 -103t7 -130 q-4 -138 -41 -217t-105 -77q-62 0 -96 80t-32 218z" />
<glyph unicode="1" d="M52 -374v1638h658v-1638l-330 216zM348 14q-2 -16 16 -17t24 15v674q0 8 -6 12t-13 4t-14 -4t-7 -10v-674z" />
<glyph unicode="2" d="M52 -374v1638h658v-1638l-330 216zM227 27q1 -11 8 -18t23 -7h230q24 0 21 20t-19 20h-214q4 38 26 82t53 92t64 99t56 103t32 102t-9 98q-20 54 -60 71t-82 5t-79 -48t-49 -86q-2 -8 4 -14t14 -9t16 0t10 13q8 36 32 64t52 39t56 1t44 -52q20 -52 -7 -122t-69 -144 t-86 -144t-60 -122q-4 -10 -6 -21t-1 -22z" />
<glyph unicode="3" d="M52 -374v1638h658v-1638l-330 216zM226 212q-4 -34 1 -71t21 -68t47 -51t81 -20q44 0 74 26t47 67t21 89t-7 95t-35 85t-62 56q24 16 45 41t34 53t16 57t-9 55q-16 34 -52 51t-77 16t-80 -21t-63 -60q-10 -16 8 -24t28 8q16 24 41 39t53 20t54 -4t42 -33t10 -55t-24 -60 t-44 -48t-52 -19q-14 0 -14 -20t14 -20q44 0 73 -27t44 -66t16 -86t-10 -86t-35 -65t-60 -24q-42 2 -63 20t-30 45t-11 56t-2 53q-4 18 -20 16t-20 -20z" />
<glyph unicode="4" d="M52 -374v1638h658v-1638l-330 216zM204 370q0 -20 7 -25t27 -5h232v-318q-2 -18 17 -19t25 15v670q0 8 -6 12t-14 4t-15 -4t-7 -10v-306l-224 -2v302q0 16 -21 16t-21 -14v-316z" />
<glyph unicode="5" d="M52 -374v1638h658v-1638l-330 216zM226 634l10 -238q0 -16 14 -30t40 2q36 12 60 6q42 -10 62 -63t19 -114t-23 -110t-66 -47q-22 0 -36 12t-22 28t-10 36t-2 36q-2 20 -19 22t-21 -20q-4 -68 24 -110t86 -44q44 0 72 28t43 71t17 95t-10 98t-37 81t-63 43q-42 10 -88 -8 l-10 248l178 4q16 4 17 20t-17 20h-180q-30 -2 -33 -26z" />
<glyph unicode="6" d="M52 -374v1638h658v-1638l-330 216zM194 208q2 -44 16 -82t37 -67t56 -45t73 -16q44 2 76 29t51 66t23 85t-10 83t-47 61t-85 22q-52 -4 -87 -31t-63 -61q2 72 16 139t40 123t63 95t89 51q12 4 11 23t-23 15q-54 -12 -99 -56t-77 -110t-48 -150t-12 -174zM240 182 q18 46 59 83t85 37q60 0 84 -41t19 -90t-35 -90t-76 -43q-32 0 -57 14t-42 35t-27 47t-10 48z" />
<glyph unicode="7" d="M52 -374v1638h658v-1638l-330 216zM212 680q0 -20 16 -20l252 2l-266 -632q-4 -10 0 -18t12 -12t15 -2t11 10l270 648q6 14 5 24t-6 14t-12 6t-11 2l-268 -2q-18 0 -18 -20z" />
<glyph unicode="8" d="M52 -374v1638h658v-1638l-330 216zM249 164q-3 -66 25 -116t98 -50q76 0 110 49t33 115t-31 132t-80 98q34 32 57 68t27 78q6 84 -30 123t-82 35q-42 -4 -78 -42t-38 -106q-2 -46 23 -90t59 -70q-38 -30 -64 -94t-29 -130zM291 183q7 57 30 109t51 70q40 -18 68 -71 t34 -109t-16 -100t-84 -44q-54 0 -72 44t-11 101zM302 550q4 46 25 74t49 32t50 -22t22 -84q0 -40 -23 -72t-51 -58q-78 62 -72 130z" />
<glyph unicode="9" d="M52 -374v1638h658v-1638l-330 216zM182 486q-4 -42 8 -80t43 -65t84 -39t131 0l2 -294q0 -8 7 -12t14 -4t14 4t7 14l-2 634q4 24 -15 26t-21 -12q-52 18 -99 9t-84 -36t-61 -66t-28 -79zM226 480q4 32 20 64t44 54t67 29t91 -7v-268q-62 -18 -105 -13t-70 25t-39 51 t-8 65z" />
<glyph unicode=":" d="M52 -374v1638h658v-1638l-330 216zM350 226q0 -28 28 -28q26 0 26 28q0 26 -26 26q-28 0 -28 -26zM350 502q0 -28 26 -28q28 0 28 28q0 26 -28 26q-26 0 -26 -26z" />
<glyph unicode=";" d="M52 -374v1638h658v-1638l-330 216zM344 270q0 -28 28 -28q26 0 26 28q0 26 -26 26q-28 0 -28 -26zM350 -37q2 -9 8 -14t14 -6t12 9q56 106 18 214q-6 20 -25 13t-13 -29q14 -50 12 -90t-24 -78q-4 -10 -2 -19z" />
<glyph unicode="&#x3c;" d="M52 -134v1398h658v-1398l-330 216z" />
<glyph unicode="=" d="M-50 1120q4 10 0 18t0 18h874v-36h-874z" />
<glyph unicode="&#x3e;" d="M52 -374v1638h658v-1638l-330 216z" />
<glyph unicode="?" d="M52 -374v1638h658v-1638l-330 216zM286 544q4 -22 21 -20t19 22q0 16 2 36t10 36t22 28t36 12q28 0 48 -24t30 -62t11 -83t-8 -86t-27 -70t-46 -35q-24 -6 -60 4q-26 16 -41 3t-13 -29l6 -124q2 -16 18 -17t22 17l-8 110q48 -16 88 -6q38 8 63 44t37 86t11 105t-16 101 t-44 76t-71 30q-58 -2 -86 -44t-24 -110zM292 34q0 -26 26 -26q28 0 28 26q0 28 -28 28q-26 0 -26 -28z" />
<glyph unicode="@" d="M52 -374v1638h658v-1638l-330 216zM162 352q-4 -100 19 -185t75 -140t134 -51q42 2 78 29t56 89q4 10 0 18t-12 11t-16 1t-10 -12q-16 -52 -44 -74t-56 -22q-66 0 -108 51t-61 126t-15 164t29 164t70 126t111 51q44 0 75 -36t50 -91t25 -118t1 -117t-21 -90t-42 -34 q-16 0 -21 34t-4 79t5 92t10 75q4 28 -12 37t-24 -9q-22 16 -34 20t-28 6q-40 2 -66 -26t-40 -70t-15 -92t10 -94t35 -73t60 -31q26 -4 43 20t27 44q4 -20 16 -34t34 -18q42 -6 69 34t37 103t4 138t-30 140t-64 109t-98 44q-78 0 -133 -58t-85 -144t-34 -186zM315 356 q1 56 20 102t55 44q22 0 50 -14v-73t-6 -89t-20 -77t-42 -37q-30 -4 -44 42t-13 102z" />
<glyph unicode="A" d="M52 -374v1638h658v-1638l-330 216zM170 24q-4 -22 15 -26t27 12l62 248q14 2 44 1t62 -2t61 -1h45l70 -244q2 -10 9 -13t15 -1t14 8t4 16l-192 658q-4 12 -13 18t-20 6t-20 -7t-11 -19zM286 302l88 338l100 -340q-14 -2 -39 -1t-54 2t-55 1h-40z" />
<glyph unicode="B" d="M52 -374v1638h658v-1638l-330 216zM246 680q10 -176 11 -337t1 -337q4 -20 20 -20t24 16v2h13q43 0 82 11q45 13 76 43t44 77q7 24 7 53q0 27 -6 58q-10 54 -53 91t-109 51q18 6 41 22t45 38t37 49t17 59v8q0 40 -18 68q-20 30 -51 46t-71 19q-13 1 -26 1q-26 0 -50 -4 q-8 8 -19 5t-15 -19zM290 652q30 8 62 7t56 -14t37 -37t9 -60q-2 -24 -20 -48t-42 -43t-50 -32t-42 -17q-2 64 -4 122t-6 122zM296 358q22 -2 50 -8t54 -20t47 -38t31 -64q5 -21 5 -40q0 -21 -6 -41q-11 -37 -37 -62t-62 -35q-20 -6 -41 -6q-17 0 -35 4q0 88 -2 155t-4 155z " />
<glyph unicode="C" d="M52 -374v1638h658v-1638l-330 216zM204 318q0 -64 14 -122t39 -104t64 -73t91 -27q50 0 106 40q16 16 5 32t-25 4q-24 -16 -44 -26t-40 -10q-38 0 -69 24t-52 64t-33 91q-10 44 -10 90v15q4 144 45 235t129 101q18 2 39 -4t39 -20q10 -4 17 0t9 12t-2 18t-16 16 q-18 10 -37 14t-37 6h-7q-54 0 -95 -31q-44 -33 -73 -86t-43 -121t-14 -138z" />
<glyph unicode="D" d="M52 -374v1638h658v-1638l-330 216zM234 356l4 -338q0 -10 7 -17t35 -1q44 6 90 23t83 54t61 101t26 166q0 70 -19 133t-55 111t-85 78t-109 32q-22 -4 -28 -8t-10 -24v-310zM280 656q40 -2 78 -26t68 -65t49 -99t19 -130q0 -94 -25 -152t-60 -90t-71 -42t-56 -8v302z" />
<glyph unicode="E" d="M52 -374v1638h658v-1638l-330 216zM224 483q0 -59 1 -125t2 -123t1 -100v-57t1 -43t17 -31q14 -2 50 -2h76t75 1t51 1q16 4 12 22t-14 18q-16 0 -47 -1t-66 -1h-67t-48 2v254h38t65 1t65 1h38q16 6 17 21t-17 19h-38t-65 -1t-65 -1h-38q-2 86 -5 162q-1 21 -1 42 q0 57 6 120h222q22 -2 24 17t-18 23l-222 -2q-28 0 -37 -11t-11 -39q-2 -18 -2 -63v-104z" />
<glyph unicode="F" d="M52 -374v1638h658v-1638l-330 216zM248 650q0 -114 1 -220t2 -191t2 -145t3 -80q0 -14 19 -19t23 17q-2 60 -5 126q-2 40 -2 89q0 33 1 71h39t66 1t66 1h39q16 4 17 20t-17 20h-39t-66 -1t-66 -1h-39q-2 40 -3 76t-1 74t1 80t3 94h204q22 -2 25 17t-19 23l-204 -2 q-30 0 -39 -11t-11 -39z" />
<glyph unicode="G" d="M52 -374v1638h658v-1638l-330 216zM202 328q2 -64 13 -124t32 -106t51 -73q28 -25 65 -25h5q36 2 66 28t52 67t34 95t12 114q-2 28 -10 37t-24 7q-14 -2 -29 -2t-31 -2q-16 -8 -14 -23t22 -17q10 2 22 2h22v-18q0 -44 -8 -84q-10 -48 -27 -84t-40 -56t-47 -20 q-32 2 -55 30t-38 70t-23 91t-8 95q0 60 9 120t29 107t49 76t69 29q26 0 41 -15t24 -36t11 -45t0 -42q4 -18 18 -18t22 16q0 20 -4 52t-17 61t-37 49q-22 18 -55 18h-7q-52 -2 -90 -36t-61 -86t-34 -118q-9 -56 -9 -113v-21z" />
<glyph unicode="H" d="M52 -374v1638h658v-1638l-330 216zM214 684l4 -672q4 -20 22 -17t20 13l-2 346h244l2 -340q6 -18 21 -16t19 12l-4 674q0 20 -19 21t-19 -19v-292h-246l-2 288q0 16 -20 19t-20 -17z" />
<glyph unicode="I" d="M52 -374v1638h658v-1638l-330 216zM203 25q-1 -17 15 -25l320 2q8 0 12 6t5 13t-3 14t-10 7l-146 -2v618l146 2q8 0 12 6t4 13t-4 14t-10 7l-320 -2q-18 2 -19 -15t15 -25h136v-618h-136q-16 2 -17 -15z" />
<glyph unicode="J" d="M52 -374v1638h658v-1638l-330 216zM216 98q12 -46 47 -72t91 -28q76 0 107 74t35 194q2 61 2 116q0 42 -1 81q-3 91 -5 199h8l64 2q8 0 12 6t4 13t-4 14t-10 7l-248 -2q-18 2 -19 -15t15 -25h140q0 -120 2 -211q1 -30 1 -61q0 -60 -3 -120q-4 -106 -25 -164t-73 -66 q-5 -1 -10 -1q-29 0 -54 19q-30 22 -36 56q-2 10 -10 14t-15 2t-13 -10t-2 -22z" />
<glyph unicode="K" d="M52 -374v1638h658v-1638l-330 216zM194 678l2 -664q4 -16 22 -16t22 14v68v81t-1 79t-1 64l288 -294q16 -16 28 -2t0 30v2l-300 316l310 308q6 6 5 15t-5 15t-11 8t-9 -4l-308 -292v268q2 8 -5 13t-16 7t-16 -2t-5 -14z" />
<glyph unicode="L" d="M52 -374v1638h658v-1638l-330 216zM214 54q-2 -34 8 -45t26 -9h268q16 4 15 22t-17 18l-258 2v636q0 8 -6 13t-13 6t-14 -3t-7 -14z" />
<glyph unicode="M" d="M52 -374v1638h658v-1638l-330 216zM152 16q2 -18 20 -16t22 12l2 596l142 -292q4 -10 20 -11t22 15l170 302l2 -606q4 -18 21 -18t19 16l-4 664q2 20 -18 21t-26 -11l-188 -324l-156 322q-6 16 -22 15t-18 -25q-4 -208 -6 -336t-2 -199v-97v-28z" />
<glyph unicode="N" d="M52 -374v1638h658v-1638l-330 216zM146 22q0 -14 7 -20t16 -7t17 4t8 13l-8 606l346 -602q14 -24 34 -24t22 24v662q0 14 -7 19t-16 4t-15 -8t-2 -19l-6 -586l-348 604q-10 16 -30 14t-18 -28v-656z" />
<glyph unicode="O" d="M52 -374v1638h658v-1638l-330 216zM200 338v-26q0 -147 42 -229q44 -85 121 -85h7q94 4 139 97t51 235v27q0 60 -7 114q-9 67 -30 119t-54 82t-77 30q-52 -2 -88 -35t-59 -86t-33 -117t-12 -126zM244 338q0 42 7 97t23 104t45 83t73 36q30 0 53 -24t40 -67t25 -103 q6 -48 6 -102v-28q-4 -138 -41 -217q-36 -77 -100 -77h-3q-64 0 -98 80q-30 72 -30 190v28z" />
<glyph unicode="P" d="M52 -374v1638h658v-1638l-330 216zM188 668q0 -96 1 -182t1 -166t1 -155t1 -153q4 -18 23 -15t19 19v198q22 2 53 7t65 15t69 25t65 39q52 40 75 90q20 44 20 88v11q-3 49 -29 91t-74 68q-42 22 -103 34t-145 18q-22 4 -32 -6t-10 -26zM228 660q90 -4 147 -17t93 -35 q38 -24 55 -58q16 -32 16 -68q0 -40 -17 -77q-16 -35 -46 -61t-67 -42t-72 -26t-63 -14t-40 -4z" />
<glyph unicode="Q" d="M52 -374v1638h658v-1638l-330 216zM182 338v-26q0 -147 42 -229q44 -85 121 -85h7q64 4 106 50l20 -48q4 -16 21 -10t17 24l-32 72q28 44 41 106t17 138v27q0 59 -7 114q-9 67 -30 119t-54 82t-77 30q-52 -2 -88 -35t-59 -86t-33 -117t-12 -126zM226 338q0 42 7 97 t23 104t45 83t73 36q30 0 53 -24t40 -67t25 -103q6 -48 6 -102v-28q-2 -64 -10 -114t-24 -88l-50 118q-2 8 -9 10t-14 -1t-12 -9t-3 -12l64 -150q-35 -48 -82 -48h-4q-64 0 -98 80q-30 72 -30 190v28z" />
<glyph unicode="R" d="M52 -374v1638h658v-1638l-330 216zM170 668q0 -96 1 -182t1 -166t1 -155t1 -153q4 -18 23 -15t19 19v194l328 -202q8 -4 15 -1t11 10t3 15t-9 12l-294 178q46 8 100 26t98 52q52 40 75 90q20 44 20 88v11q-3 49 -29 91t-74 68q-42 22 -103 34t-145 18q-22 4 -32 -6 t-10 -26zM210 660q90 -4 147 -17t93 -35q38 -24 55 -58q16 -32 16 -68q0 -40 -17 -77q-16 -35 -46 -61t-67 -42t-72 -26t-63 -14t-40 -4z" />
<glyph unicode="S" d="M52 -374v1638h658v-1638l-330 216zM172 200v-8q0 -57 25 -97q27 -43 68 -68t91 -30q13 -1 26 -1q36 0 69 10q45 14 78 46t41 84q3 22 3 41q0 34 -9 59q-14 40 -44 69t-71 50t-87 39q-26 10 -51 26t-45 36t-33 44t-13 50q0 60 38 87q33 24 78 24q7 0 14 -1q28 -4 56 -18 t51 -37t37 -53t14 -62q0 -18 22 -18t22 18q0 42 -18 79t-46 65t-64 45t-72 21q-13 2 -26 2q-59 0 -100 -39q-50 -47 -50 -117q0 -30 14 -59t37 -53t52 -42t57 -30q40 -16 78 -34t66 -44t42 -61q10 -24 10 -55q0 -13 -2 -28q-8 -58 -60 -84q-42 -21 -89 -21q-11 0 -22 1 q-59 6 -104 47q-41 38 -41 107v12q0 12 -6 17t-14 4t-15 -7t-7 -16z" />
<glyph unicode="T" d="M52 -374v1638h658v-1638l-330 216zM200 678q0 -8 5 -14t15 -4h126v-640q0 -10 7 -16t15 -6t15 5t7 15l-2 642h142q18 0 19 19t-19 19h-312q-10 0 -14 -6t-4 -14z" />
<glyph unicode="U" d="M52 -374v1638h658v-1638l-330 216zM170 680q2 -104 4 -203t12 -185q14 -126 52 -207t116 -83q46 0 80 22t57 61t37 92t22 117q12 90 17 195t7 195q0 8 -6 13t-15 5t-15 -4t-6 -14q0 -24 -1 -65t-4 -92t-7 -109t-12 -114q-8 -52 -20 -99t-30 -82t-43 -56t-57 -21 q-58 2 -87 72t-41 186q-10 78 -12 173t-2 199q2 12 -5 18t-16 6t-17 -5t-8 -15z" />
<glyph unicode="V" d="M52 -374v1638h658v-1638l-330 216zM130 678l214 -668q4 -12 19 -12t19 14l214 666q2 6 -3 12t-12 8t-14 0t-9 -10l-194 -610l-194 608q-2 8 -10 10t-15 0t-12 -7t-3 -11z" />
<glyph unicode="W" d="M52 -374v1638h658v-1638l-330 216zM172 684l96 -666q4 -16 20 -16t18 16l60 236l76 -238q2 -16 17 -16t19 16l100 666q2 14 -18 16t-22 -14l-86 -566l-64 214q-4 16 -22 17t-20 -15l-50 -196l-84 548q0 8 -7 11t-15 3t-14 -5t-4 -11z" />
<glyph unicode="X" d="M52 -374v1638h658v-1638l-330 216zM170 678l168 -326l-166 -330q-8 -16 6 -25t26 5l158 306l156 -304q12 -14 27 -6t7 24l-166 328l166 326q2 8 -2 14t-12 9t-15 2t-9 -7l-150 -300l-154 300q-2 6 -10 8t-15 -1t-13 -9t-2 -14z" />
<glyph unicode="Y" d="M52 -374v1638h658v-1638l-330 216zM142 676l212 -334v-328q0 -6 7 -10t15 -4t15 3t5 9v336l216 324q12 20 -6 30t-34 -12l-198 -292l-192 294q-4 6 -11 8t-14 0t-12 -9t-3 -15z" />
<glyph unicode="Z" d="M52 -374v1638h658v-1638l-330 216zM269 675q1 -9 6 -15t15 -2q12 0 32 -1t43 -1h43h30q-18 -84 -43 -173t-49 -170t-44 -150t-30 -111q-8 -28 3 -38t39 -10h24h40h47h43q16 6 17 26t-15 18q-24 -2 -71 -2h-81q12 60 34 141t47 163t49 158t36 126q10 42 5 56t-31 8 q-10 0 -31 -1t-46 -1t-51 1t-46 1q-10 0 -13 -7t-2 -16z" />
<glyph unicode="[" horiz-adv-x="0" d="M-82 1120q4 10 5 20t5 20q48 -2 63 -2h22t15 1t42 1l-16 -40q-38 0 -50 1t-18 1t-18 -1t-50 -1z" />
<glyph unicode="]" d="M-50 1120v36h874v-36h-874z" />
<glyph unicode="_" d="M-50 1120q4 10 0 18t0 18h874v-36h-874z" />
<glyph unicode="`" horiz-adv-x="98" d="M20 1060q-10 18 9 26t27 -6l30 -66q10 -22 -8 -27t-28 11z" />
<glyph unicode="a" d="M52 -134v1398h658v-1398l-330 216zM170 264q-4 -22 15 -26t27 12l62 248q14 2 44 1t62 -2t61 -1h45l70 -244q2 -10 9 -13t15 -1t14 8t4 16l-192 658q-4 12 -13 18t-20 6t-20 -7t-11 -19zM286 542l88 338l100 -340q-14 -2 -39 -1t-54 2t-55 1h-40z" />
<glyph unicode="b" d="M52 -134v1398h658v-1398l-330 216zM246 920q10 -176 11 -337t1 -337q4 -20 20 -20t24 16v2h13q43 0 82 11q45 13 76 43t44 77q7 24 7 53q0 27 -6 58q-10 54 -53 91t-109 51q18 6 41 22t45 38t37 49t17 59v8q0 40 -18 68q-20 30 -51 46t-71 19q-13 1 -26 1q-26 0 -50 -4 q-8 8 -19 5t-15 -19zM290 892q30 8 62 7t56 -14t37 -37t9 -60q-2 -24 -20 -48t-42 -43t-50 -32t-42 -17q-2 64 -4 122t-6 122zM296 598q22 -2 50 -8t54 -20t47 -38t31 -64q5 -21 5 -40q0 -21 -6 -41q-11 -37 -37 -62t-62 -35q-20 -6 -41 -6q-17 0 -35 4q0 88 -2 155t-4 155z " />
<glyph unicode="c" d="M52 -134v1398h658v-1398l-330 216zM204 558q0 -64 14 -122t39 -104t64 -73t91 -27q50 0 106 40q16 16 5 32t-25 4q-24 -16 -44 -26t-40 -10q-38 0 -69 24t-52 64t-33 91q-10 44 -10 90v15q4 144 45 235t129 101q18 2 39 -4t39 -20q10 -4 17 0t9 12t-2 18t-16 16 q-18 10 -37 14t-37 6h-7q-54 0 -95 -31q-44 -33 -73 -86t-43 -121t-14 -138z" />
<glyph unicode="d" d="M52 -134v1398h658v-1398l-330 216zM234 596l4 -338q0 -10 7 -17t35 -1q44 6 90 23t83 54t61 101t26 166q0 70 -19 133t-55 111t-85 78t-109 32q-22 -4 -28 -8t-10 -24v-310zM280 896q40 -2 78 -26t68 -65t49 -99t19 -130q0 -94 -25 -152t-60 -90t-71 -42t-56 -8v302z" />
<glyph unicode="e" d="M52 -134v1398h658v-1398l-330 216zM224 723q0 -59 1 -125t2 -123t1 -100v-57t1 -43t17 -31q14 -2 50 -2h76t75 1t51 1q16 4 12 22t-14 18q-16 0 -47 -1t-66 -1h-67t-48 2v254h38t65 1t65 1h38q16 6 17 21t-17 19h-38t-65 -1t-65 -1h-38q-2 86 -5 162q-1 21 -1 42 q0 57 6 120h222q22 -2 24 17t-18 23l-222 -2q-28 0 -37 -11t-11 -39q-2 -18 -2 -63v-104z" />
<glyph unicode="f" d="M52 -134v1398h658v-1398l-330 216zM248 890q0 -114 1 -220t2 -191t2 -145t3 -80q0 -14 19 -19t23 17q-2 60 -5 126q-2 40 -2 89q0 33 1 71h39t66 1t66 1h39q16 4 17 20t-17 20h-39t-66 -1t-66 -1h-39q-2 40 -3 76t-1 74t1 80t3 94h204q22 -2 25 17t-19 23l-204 -2 q-30 0 -39 -11t-11 -39z" />
<glyph unicode="g" d="M52 -134v1398h658v-1398l-330 216zM202 568q2 -64 13 -124t32 -106t51 -73q28 -25 65 -25h5q36 2 66 28t52 67t34 95t12 114q-2 28 -10 37t-24 7q-14 -2 -29 -2t-31 -2q-16 -8 -14 -23t22 -17q10 2 22 2h22v-18q0 -44 -8 -84q-10 -48 -27 -84t-40 -56t-47 -20 q-32 2 -55 30t-38 70t-23 91t-8 95q0 60 9 120t29 107t49 76t69 29q26 0 41 -15t24 -36t11 -45t0 -42q4 -18 18 -18t22 16q0 20 -4 52t-17 61t-37 49q-22 18 -55 18h-7q-52 -2 -90 -36t-61 -86t-34 -118q-9 -56 -9 -113v-21z" />
<glyph unicode="h" d="M52 -134v1398h658v-1398l-330 216zM214 924l4 -672q4 -20 22 -17t20 13l-2 346h244l2 -340q6 -18 21 -16t19 12l-4 674q0 20 -19 21t-19 -19v-292h-246l-2 288q0 16 -20 19t-20 -17z" />
<glyph unicode="i" d="M52 -134v1398h658v-1398l-330 216zM203 265q-1 -17 15 -25l320 2q8 0 12 6t5 13t-3 14t-10 7l-146 -2v618l146 2q8 0 12 6t4 13t-4 14t-10 7l-320 -2q-18 2 -19 -15t15 -25h136v-618h-136q-16 2 -17 -15z" />
<glyph unicode="j" d="M52 -134v1398h658v-1398l-330 216zM216 338q12 -46 47 -72t91 -28q76 0 107 74t35 194q2 61 2 116q0 42 -1 81q-3 91 -5 199h8l64 2q8 0 12 6t4 13t-4 14t-10 7l-248 -2q-18 2 -19 -15t15 -25h140q0 -120 2 -211q1 -30 1 -61q0 -60 -3 -120q-4 -106 -25 -164t-73 -66 q-5 -1 -10 -1q-29 0 -54 19q-30 22 -36 56q-2 10 -10 14t-15 2t-13 -10t-2 -22z" />
<glyph unicode="k" d="M52 -134v1398h658v-1398l-330 216zM194 918l2 -664q4 -16 22 -16t22 14v68v81t-1 79t-1 64l288 -294q16 -16 28 -2t0 30v2l-300 316l310 308q6 6 5 15t-5 15t-11 8t-9 -4l-308 -292v268q2 8 -5 13t-16 7t-16 -2t-5 -14z" />
<glyph unicode="l" d="M52 -134v1398h658v-1398l-330 216zM214 294q-2 -34 8 -45t26 -9h268q16 4 15 22t-17 18l-258 2v636q0 8 -6 13t-13 6t-14 -3t-7 -14z" />
<glyph unicode="m" d="M52 -134v1398h658v-1398l-330 216zM152 256q2 -18 20 -16t22 12l2 596l142 -292q4 -10 20 -11t22 15l170 302l2 -606q4 -18 21 -18t19 16l-4 664q2 20 -18 21t-26 -11l-188 -324l-156 322q-6 16 -22 15t-18 -25q-4 -208 -6 -336t-2 -199v-97v-28z" />
<glyph unicode="n" d="M52 -134v1398h658v-1398l-330 216zM146 262q0 -14 7 -20t16 -7t17 4t8 13l-8 606l346 -602q14 -24 34 -24t22 24v662q0 14 -7 19t-16 4t-15 -8t-2 -19l-6 -586l-348 604q-10 16 -30 14t-18 -28v-656z" />
<glyph unicode="o" d="M52 -134v1398h658v-1398l-330 216zM200 578v-26q0 -147 42 -229q44 -85 121 -85h7q94 4 139 97t51 235v27q0 60 -7 114q-9 67 -30 119t-54 82t-77 30q-52 -2 -88 -35t-59 -86t-33 -117t-12 -126zM244 578q0 42 7 97t23 104t45 83t73 36q30 0 53 -24t40 -67t25 -103 q6 -48 6 -102v-28q-4 -138 -41 -217q-36 -77 -100 -77h-3q-64 0 -98 80q-30 72 -30 190v28z" />
<glyph unicode="p" d="M52 -134v1398h658v-1398l-330 216zM188 908q0 -96 1 -182t1 -166t1 -155t1 -153q4 -18 23 -15t19 19v198q22 2 53 7t65 15t69 25t65 39q52 40 75 90q20 44 20 88v11q-3 49 -29 91t-74 68q-42 22 -103 34t-145 18q-22 4 -32 -6t-10 -26zM228 900q90 -4 147 -17t93 -35 q38 -24 55 -58q16 -32 16 -68q0 -40 -17 -77q-16 -35 -46 -61t-67 -42t-72 -26t-63 -14t-40 -4z" />
<glyph unicode="q" d="M52 -134v1398h658v-1398l-330 216zM182 578v-26q0 -147 42 -229q44 -85 121 -85h7q64 4 106 50l20 -48q4 -16 21 -10t17 24l-32 72q28 44 41 106t17 138v27q0 59 -7 114q-9 67 -30 119t-54 82t-77 30q-52 -2 -88 -35t-59 -86t-33 -117t-12 -126zM226 578q0 42 7 97 t23 104t45 83t73 36q30 0 53 -24t40 -67t25 -103q6 -48 6 -102v-28q-2 -64 -10 -114t-24 -88l-50 118q-2 8 -9 10t-14 -1t-12 -9t-3 -12l64 -150q-35 -48 -82 -48h-4q-64 0 -98 80q-30 72 -30 190v28z" />
<glyph unicode="r" d="M52 -134v1398h658v-1398l-330 216zM170 908q0 -96 1 -182t1 -166t1 -155t1 -153q4 -18 23 -15t19 19v194l328 -202q8 -4 15 -1t11 10t3 15t-9 12l-294 178q46 8 100 26t98 52q52 40 75 90q20 44 20 88v11q-3 49 -29 91t-74 68q-42 22 -103 34t-145 18q-22 4 -32 -6 t-10 -26zM210 900q90 -4 147 -17t93 -35q38 -24 55 -58q16 -32 16 -68q0 -40 -17 -77q-16 -35 -46 -61t-67 -42t-72 -26t-63 -14t-40 -4z" />
<glyph unicode="s" d="M52 -134v1398h658v-1398l-330 216zM172 440v-8q0 -57 25 -97q27 -43 68 -68t91 -30q13 -1 26 -1q36 0 69 10q45 14 78 46t41 84q3 22 3 41q0 34 -9 59q-14 40 -44 69t-71 50t-87 39q-26 10 -51 26t-45 36t-33 44t-13 50q0 60 38 87q33 24 78 24q7 0 14 -1q28 -4 56 -18 t51 -37t37 -53t14 -62q0 -18 22 -18t22 18q0 42 -18 79t-46 65t-64 45t-72 21q-13 2 -26 2q-59 0 -100 -39q-50 -47 -50 -117q0 -30 14 -59t37 -53t52 -42t57 -30q40 -16 78 -34t66 -44t42 -61q10 -24 10 -55q0 -13 -2 -28q-8 -58 -60 -84q-42 -21 -89 -21q-11 0 -22 1 q-59 6 -104 47q-41 38 -41 107v12q0 12 -6 17t-14 4t-15 -7t-7 -16z" />
<glyph unicode="t" d="M52 -134v1398h658v-1398l-330 216zM200 918q0 -8 5 -14t15 -4h126v-640q0 -10 7 -16t15 -6t15 5t7 15l-2 642h142q18 0 19 19t-19 19h-312q-10 0 -14 -6t-4 -14z" />
<glyph unicode="u" d="M52 -134v1398h658v-1398l-330 216zM170 920q2 -104 4 -203t12 -185q14 -126 52 -207t116 -83q46 0 80 22t57 61t37 92t22 117q12 90 17 195t7 195q0 8 -6 13t-15 5t-15 -4t-6 -14q0 -24 -1 -65t-4 -92t-7 -109t-12 -114q-8 -52 -20 -99t-30 -82t-43 -56t-57 -21 q-58 2 -87 72t-41 186q-10 78 -12 173t-2 199q2 12 -5 18t-16 6t-17 -5t-8 -15z" />
<glyph unicode="v" d="M52 -134v1398h658v-1398l-330 216zM130 918l214 -668q4 -12 19 -12t19 14l214 666q2 6 -3 12t-12 8t-14 0t-9 -10l-194 -610l-194 608q-2 8 -10 10t-15 0t-12 -7t-3 -11z" />
<glyph unicode="w" d="M52 -134v1398h658v-1398l-330 216zM172 924l96 -666q4 -16 20 -16t18 16l60 236l76 -238q2 -16 17 -16t19 16l100 666q2 14 -18 16t-22 -14l-86 -566l-64 214q-4 16 -22 17t-20 -15l-50 -196l-84 548q0 8 -7 11t-15 3t-14 -5t-4 -11z" />
<glyph unicode="x" d="M52 -134v1398h658v-1398l-330 216zM170 918l168 -326l-166 -330q-8 -16 6 -25t26 5l158 306l156 -304q12 -14 27 -6t7 24l-166 328l166 326q2 8 -2 14t-12 9t-15 2t-9 -7l-150 -300l-154 300q-2 6 -10 8t-15 -1t-13 -9t-2 -14z" />
<glyph unicode="y" d="M52 -134v1398h658v-1398l-330 216zM142 916l212 -334v-328q0 -6 7 -10t15 -4t15 3t5 9v336l216 324q12 20 -6 30t-34 -12l-198 -292l-192 294q-4 6 -11 8t-14 0t-12 -9t-3 -15z" />
<glyph unicode="z" d="M52 -134v1398h658v-1398l-330 216zM269 915q1 -9 6 -15t15 -2q12 0 32 -1t43 -1h43h30q-18 -84 -43 -173t-49 -170t-44 -150t-30 -111q-8 -28 3 -38t39 -10h24h40h47h43q16 6 17 26t-15 18q-24 -2 -71 -2h-81q12 60 34 141t47 163t49 158t36 126q10 42 5 56t-31 8 q-10 0 -31 -1t-46 -1t-51 1t-46 1q-10 0 -13 -7t-2 -16z" />
<glyph unicode="{" d="M12 -210v1514h738v-1512l-370 242q-40 -28 -89 -59t-98 -64t-96 -64t-85 -57z" />
<glyph unicode="|" d="M52 -374v1638h658v-1638l-330 216zM213 426q-5 -42 28 -102t119 -108q68 46 102 108t32 106t-39 53t-111 -49q-54 52 -90 43t-41 -51z" />
<glyph unicode="}" d="M12 -450v1754h738v-1752l-370 242q-40 -28 -89 -59t-98 -64t-96 -64t-85 -57z" />
<glyph unicode="&#xa1;" d="M52 -374v1638h658v-1638l-330 216zM340 680q0 -28 28 -28q26 0 26 28q0 26 -26 26q-28 0 -28 -26zM348 30q0 -8 6 -12t13 -4t14 4t7 10v528q2 16 -16 17t-24 -15v-528z" />
<glyph unicode="&#xa3;" d="M52 -374v1638h658v-1638l-330 216zM241 331q-1 -17 15 -25h18q-4 -54 -4 -117t-2 -135q-2 -34 8 -45t26 -9h160q16 4 16 22t-16 18l-152 2q2 152 6 264l124 2q8 0 12 6t5 13t-3 14t-10 7l-126 -2q8 166 23 238t49 72q12 0 19 -13t11 -33t5 -43t3 -43q0 -20 19 -19t17 15 q-2 26 -4 58t-9 58t-21 44t-40 18h-4q-30 0 -50 -18t-32 -59t-19 -108t-11 -167h-16q-16 2 -17 -15z" />
<glyph unicode="&#xa8;" horiz-adv-x="180" d="M24 1004q0 28 26 28q28 0 28 -28q0 -26 -28 -26q-26 0 -26 26zM108 1004q0 28 26 28q28 0 28 -28q0 -26 -28 -26q-26 0 -26 26z" />
<glyph unicode="&#xad;" d="M52 -374v1638h658v-1638l-330 216zM253 354q-1 -18 15 -24h184q16 0 17 20t-13 20h-186q-16 2 -17 -16z" />
<glyph unicode="&#xaf;" horiz-adv-x="272" d="M29 1003q1 17 17 15l186 2q6 0 10 -7t3 -14t-5 -13t-12 -6l-184 -2q-16 8 -15 25z" />
<glyph unicode="&#xb4;" horiz-adv-x="98" d="M19 989q-3 7 1 17l32 66q2 6 10 7t16 -2t12 -10t-2 -15l-32 -62q-4 -8 -12 -11t-15 0t-10 10z" />
<glyph unicode="&#xb8;" horiz-adv-x="128" d="M30 -20q0 14 2 11t0 13q4 18 17 19t19 -17v-8v-2v-1v-9q26 -6 37 -24t9 -39t-19 -36t-49 -15q-6 0 -10 6t-5 13t2 12t11 5q12 -2 21 5t11 17t-4 19t-22 11q-14 0 -16 5t-4 15z" />
<glyph unicode="&#xbf;" d="M52 -374v1638h658v-1638l-330 216zM217 205q1 -55 16 -101t43 -76t72 -30q58 2 86 44t24 110q-4 22 -21 20t-19 -22q2 -34 -12 -72t-58 -40q-30 -2 -49 23t-29 63t-11 83t8 86t27 70t46 35q24 6 60 -4q26 -16 41 -3t13 29l-6 124q-2 16 -18 17t-22 -17l8 -110 q-48 16 -88 6q-38 -8 -63 -44t-37 -86t-11 -105zM386 656q0 -26 26 -26q28 0 28 26q0 28 -28 28q-26 0 -26 -28z" />
<glyph unicode="&#xc0;" d="M52 -374v1638h658v-1638l-330 216zM170 24q-4 -22 15 -26t27 12l62 248q14 2 44 1t62 -2t61 -1h45l70 -244q2 -10 9 -13t15 -1t14 8t4 16l-192 658q-4 12 -13 18t-20 6t-20 -7t-11 -19zM286 302l88 338l100 -340q-14 -2 -39 -1t-54 2t-55 1h-40zM348 840l30 -62 q10 -16 28 -11t8 27l-30 66q-8 14 -27 6t-9 -26z" />
<glyph unicode="&#xc1;" d="M52 -374v1638h658v-1638l-330 216zM170 24q-4 -22 15 -26t27 12l62 248q14 2 44 1t62 -2t61 -1h45l70 -244q2 -10 9 -13t15 -1t14 8t4 16l-192 658q-4 12 -13 18t-20 6t-20 -7t-11 -19zM286 302l88 338l100 -340q-14 -2 -39 -1t-54 2t-55 1h-40zM345 775q3 -7 10 -10 t15 0t12 11l32 62q6 8 2 15t-12 10t-16 2t-10 -7l-32 -66q-4 -10 -1 -17z" />
<glyph unicode="&#xc2;" d="M52 -374v1638h658v-1638l-330 216zM170 24q-4 -22 15 -26t27 12l62 248q14 2 44 1t62 -2t61 -1h45l70 -244q2 -10 9 -13t15 -1t14 8t4 16l-192 658q-4 12 -13 18t-20 6t-20 -7t-11 -19zM286 302l88 338l100 -340q-14 -2 -39 -1t-54 2t-55 1h-40zM322 793q4 -7 11 -10 t15 -2t12 9l22 46l24 -44q8 -16 24 -6t12 22l-32 66q-6 14 -25 18t-29 -18l-34 -66q-4 -8 0 -15z" />
<glyph unicode="&#xc3;" d="M52 -374v1638h658v-1638l-330 216zM170 24q-4 -22 15 -26t27 12l62 248q14 2 44 1t62 -2t61 -1h45l70 -244q2 -10 9 -13t15 -1t14 8t4 16l-192 658q-4 12 -13 18t-20 6t-20 -7t-11 -19zM250 758q4 -20 21 -18t19 18q8 12 13 21t21 11q14 0 25 -8t23 -17t27 -17t37 -8 q28 2 47 24t23 44q4 18 -13 25t-23 -11q-12 -38 -40 -42q-10 0 -21 8t-24 19t-29 19t-34 6q-28 -2 -48 -24t-24 -50zM286 302l88 338l100 -340q-14 -2 -39 -1t-54 2t-55 1h-40z" />
<glyph unicode="&#xc4;" d="M52 -374v1638h658v-1638l-330 216zM170 24q-4 -22 15 -26t27 12l62 248q14 2 44 1t62 -2t61 -1h45l70 -244q2 -10 9 -13t15 -1t14 8t4 16l-192 658q-4 12 -13 18t-20 6t-20 -7t-11 -19zM286 302l88 338l100 -340q-14 -2 -39 -1t-54 2t-55 1h-40zM312 774q0 -26 26 -26 q28 0 28 26q0 28 -28 28q-26 0 -26 -28zM396 774q0 -26 26 -26q28 0 28 26q0 28 -28 28q-26 0 -26 -28z" />
<glyph unicode="&#xc5;" d="M52 -374v1638h658v-1638l-330 216zM170 24q-4 -22 15 -26t27 12l62 248q14 2 44 1t62 -2t61 -1h45l70 -244q2 -10 9 -13t15 -1t14 8t4 16l-192 658q-4 12 -13 18t-20 6t-20 -7t-11 -19zM286 302l88 338l100 -340q-14 -2 -39 -1t-54 2t-55 1h-40zM332 800q0 -22 14 -36 t34 -14q22 0 36 14t14 36t-14 36t-36 14q-20 0 -34 -14t-14 -36zM360 800q0 18 20 18q18 0 18 -18t-18 -18q-20 0 -20 18z" />
<glyph unicode="&#xc6;" d="M52 -374v1638h658v-1638l-330 216zM92 22q-6 -22 14 -27t28 11l122 286q22 2 53 1t59 -1q2 -76 3 -137t1 -77v-43t16 -31q14 -2 50 -2h76t75 1t51 1q16 4 13 22t-13 18q-16 0 -48 -1t-67 -1h-66t-47 2q0 30 -1 56t-1 54t1 63t1 81h38t65 1t65 1h38q16 6 17 21t-19 19h-38 t-64 -1t-64 -1h-38q-2 84 -5 160t3 160l2 4h220q22 -2 25 17t-19 23l-220 -2q-16 0 -32 -7t-20 -23zM270 336l96 220v-103t2 -115z" />
<glyph unicode="&#xc7;" d="M52 -374v1638h658v-1638l-330 216zM174 370q0 -60 12 -115t34 -99t56 -74t80 -36q2 -14 1 -11t-1 -13l3 -15t17 -3q14 -2 20 -12t4 -20t-10 -17t-22 -5t-12 -16t16 -18q30 0 47 15t20 35t-9 39t-36 25h-2q0 10 1 10t-1 4q46 2 96 40q16 16 5 32t-25 4q-24 -16 -44 -26 t-40 -10q-38 0 -69 24t-52 64t-33 91t-10 105q4 144 45 235t129 101q18 2 39 -4t39 -20q10 -4 17 0t9 12t-2 18t-16 16q-18 10 -37 14t-37 6q-58 2 -102 -31t-73 -86t-43 -121t-14 -138zM356 46q4 18 18 20t18 -16v-6h-10q-18 0 -26 2z" />
<glyph unicode="&#xc8;" d="M52 -374v1638h658v-1638l-330 216zM224 483q0 -59 1 -125t2 -123t1 -100v-57t1 -43t17 -31q14 -2 50 -2h76t75 1t51 1q16 4 12 22t-14 18q-16 0 -47 -1t-66 -1h-67t-48 2v254h38t65 1t65 1h38q16 6 17 21t-17 19h-38t-65 -1t-65 -1h-38q-2 86 -5 162t5 162h222 q22 -2 24 17t-18 23l-222 -2q-28 0 -37 -11t-11 -39q-2 -18 -2 -63v-104zM348 840l30 -62q10 -16 28 -11t8 27l-30 66q-8 14 -27 6t-9 -26z" />
<glyph unicode="&#xc9;" d="M52 -374v1638h658v-1638l-330 216zM224 483q0 -59 1 -125t2 -123t1 -100v-57t1 -43t17 -31q14 -2 50 -2h76t75 1t51 1q16 4 12 22t-14 18q-16 0 -47 -1t-66 -1h-67t-48 2v254h38t65 1t65 1h38q16 6 17 21t-17 19h-38t-65 -1t-65 -1h-38q-2 86 -5 162t5 162h222 q22 -2 24 17t-18 23l-222 -2q-28 0 -37 -11t-11 -39q-2 -18 -2 -63v-104zM345 775q3 -7 10 -10t15 0t12 11l32 62q6 8 2 15t-12 10t-16 2t-10 -7l-32 -66q-4 -10 -1 -17z" />
<glyph unicode="&#xca;" d="M52 -374v1638h658v-1638l-330 216zM224 483q0 -59 1 -125t2 -123t1 -100v-57t1 -43t17 -31q14 -2 50 -2h76t75 1t51 1q16 4 12 22t-14 18q-16 0 -47 -1t-66 -1h-67t-48 2v254h38t65 1t65 1h38q16 6 17 21t-17 19h-38t-65 -1t-65 -1h-38q-2 86 -5 162t5 162h222 q22 -2 24 17t-18 23l-222 -2q-28 0 -37 -11t-11 -39q-2 -18 -2 -63v-104zM322 793q4 -7 11 -10t15 -2t12 9l22 46l24 -44q8 -16 24 -6t12 22l-32 66q-6 14 -25 18t-29 -18l-34 -66q-4 -8 0 -15z" />
<glyph unicode="&#xcb;" d="M52 -374v1638h658v-1638l-330 216zM224 483q0 -59 1 -125t2 -123t1 -100v-57t1 -43t17 -31q14 -2 50 -2h76t75 1t51 1q16 4 12 22t-14 18q-16 0 -47 -1t-66 -1h-67t-48 2v254h38t65 1t65 1h38q16 6 17 21t-17 19h-38t-65 -1t-65 -1h-38q-2 86 -5 162t5 162h222 q22 -2 24 17t-18 23l-222 -2q-28 0 -37 -11t-11 -39q-2 -18 -2 -63v-104zM312 774q0 -26 26 -26q28 0 28 26q0 28 -28 28q-26 0 -26 -28zM396 774q0 -26 26 -26q28 0 28 26q0 28 -28 28q-26 0 -26 -28z" />
<glyph unicode="&#xcc;" d="M52 -374v1638h658v-1638l-330 216zM203 25q-1 -17 15 -25l320 2q8 0 12 6t5 13t-3 14t-10 7l-146 -2v618l146 2q8 0 12 6t4 13t-4 14t-10 7l-320 -2q-18 2 -19 -15t15 -25h136v-618h-136q-16 2 -17 -15zM348 840l30 -62q10 -16 28 -11t8 27l-30 66q-8 14 -27 6t-9 -26z " />
<glyph unicode="&#xcd;" d="M52 -374v1638h658v-1638l-330 216zM203 25q-1 -17 15 -25l320 2q8 0 12 6t5 13t-3 14t-10 7l-146 -2v618l146 2q8 0 12 6t4 13t-4 14t-10 7l-320 -2q-18 2 -19 -15t15 -25h136v-618h-136q-16 2 -17 -15zM345 775q3 -7 10 -10t15 0t12 11l32 62q6 8 2 15t-12 10t-16 2 t-10 -7l-32 -66q-4 -10 -1 -17z" />
<glyph unicode="&#xce;" d="M52 -374v1638h658v-1638l-330 216zM203 25q-1 -17 15 -25l320 2q8 0 12 6t5 13t-3 14t-10 7l-146 -2v618l146 2q8 0 12 6t4 13t-4 14t-10 7l-320 -2q-18 2 -19 -15t15 -25h136v-618h-136q-16 2 -17 -15zM322 793q4 -7 11 -10t15 -2t12 9l22 46l24 -44q8 -16 24 -6t12 22 l-32 66q-6 14 -25 18t-29 -18l-34 -66q-4 -8 0 -15z" />
<glyph unicode="&#xcf;" d="M52 -374v1638h658v-1638l-330 216zM203 25q-1 -17 15 -25l320 2q8 0 12 6t5 13t-3 14t-10 7l-146 -2v618l146 2q8 0 12 6t4 13t-4 14t-10 7l-320 -2q-18 2 -19 -15t15 -25h136v-618h-136q-16 2 -17 -15zM312 774q0 -26 26 -26q28 0 28 26q0 28 -28 28q-26 0 -26 -28z M396 774q0 -26 26 -26q28 0 28 26q0 28 -28 28q-26 0 -26 -28z" />
<glyph unicode="&#xd0;" d="M52 -374v1638h658v-1638l-330 216zM209 353q-1 -17 15 -25h22l4 -310q0 -10 7 -17t35 -1q44 6 90 23t83 54t61 101t26 166q0 70 -19 133t-55 111t-85 78t-109 32q-22 -4 -28 -8t-10 -24v-298h-20q-16 2 -17 -15zM246 328v40h48v-40h-48zM292 656q40 -2 78 -26t68 -65 t49 -99t19 -130q0 -94 -25 -152t-60 -90t-71 -42t-56 -8v284l114 2q8 0 12 6t5 13t-3 14t-10 7l-118 -2z" />
<glyph unicode="&#xd1;" d="M52 -374v1638h658v-1638l-330 216zM146 22q0 -14 7 -20t16 -7t17 4t8 13l-8 606l346 -602q14 -24 34 -24t22 24v662q0 14 -7 19t-16 4t-15 -8t-2 -19l-6 -586l-348 604q-10 16 -30 14t-18 -28v-656zM250 758q4 -20 21 -18t19 18q8 12 13 21t21 11q14 0 25 -8t23 -17 t27 -17t37 -8q28 2 47 24t23 44q4 18 -13 25t-23 -11q-12 -38 -40 -42q-10 0 -21 8t-24 19t-29 19t-34 6q-28 -2 -48 -24t-24 -50z" />
<glyph unicode="&#xd2;" d="M52 -374v1638h658v-1638l-330 216zM200 338q-4 -166 42 -255t128 -85q94 4 139 97t51 235q2 74 -7 141t-30 119t-54 82t-77 30q-52 -2 -88 -35t-59 -86t-33 -117t-12 -126zM244 338q0 42 7 97t23 104t45 83t73 36q30 0 53 -24t40 -67t25 -103t6 -130q-4 -138 -41 -217 t-103 -77q-64 0 -98 80t-30 218zM348 840l30 -62q10 -16 28 -11t8 27l-30 66q-8 14 -27 6t-9 -26z" />
<glyph unicode="&#xd3;" d="M52 -374v1638h658v-1638l-330 216zM200 338q-4 -166 42 -255t128 -85q94 4 139 97t51 235q2 74 -7 141t-30 119t-54 82t-77 30q-52 -2 -88 -35t-59 -86t-33 -117t-12 -126zM244 338q0 42 7 97t23 104t45 83t73 36q30 0 53 -24t40 -67t25 -103t6 -130q-4 -138 -41 -217 t-103 -77q-64 0 -98 80t-30 218zM345 775q3 -7 10 -10t15 0t12 11l32 62q6 8 2 15t-12 10t-16 2t-10 -7l-32 -66q-4 -10 -1 -17z" />
<glyph unicode="&#xd4;" d="M52 -374v1638h658v-1638l-330 216zM200 338q-4 -166 42 -255t128 -85q94 4 139 97t51 235q2 74 -7 141t-30 119t-54 82t-77 30q-52 -2 -88 -35t-59 -86t-33 -117t-12 -126zM244 338q0 42 7 97t23 104t45 83t73 36q30 0 53 -24t40 -67t25 -103t6 -130q-4 -138 -41 -217 t-103 -77q-64 0 -98 80t-30 218zM322 793q4 -7 11 -10t15 -2t12 9l22 46l24 -44q8 -16 24 -6t12 22l-32 66q-6 14 -25 18t-29 -18l-34 -66q-4 -8 0 -15z" />
<glyph unicode="&#xd5;" d="M52 -374v1638h658v-1638l-330 216zM200 338q-4 -166 42 -255t128 -85q94 4 139 97t51 235q2 74 -7 141t-30 119t-54 82t-77 30q-52 -2 -88 -35t-59 -86t-33 -117t-12 -126zM244 338q0 42 7 97t23 104t45 83t73 36q30 0 53 -24t40 -67t25 -103t6 -130q-4 -138 -41 -217 t-103 -77q-64 0 -98 80t-30 218zM250 758q4 -20 21 -18t19 18q8 12 13 21t21 11q14 0 25 -8t23 -17t27 -17t37 -8q28 2 47 24t23 44q4 18 -13 25t-23 -11q-12 -38 -40 -42q-10 0 -21 8t-24 19t-29 19t-34 6q-28 -2 -48 -24t-24 -50z" />
<glyph unicode="&#xd6;" d="M52 -374v1638h658v-1638l-330 216zM200 338q-4 -166 42 -255t128 -85q94 4 139 97t51 235q2 74 -7 141t-30 119t-54 82t-77 30q-52 -2 -88 -35t-59 -86t-33 -117t-12 -126zM244 338q0 42 7 97t23 104t45 83t73 36q30 0 53 -24t40 -67t25 -103t6 -130q-4 -138 -41 -217 t-103 -77q-64 0 -98 80t-30 218zM312 774q0 -26 26 -26q28 0 28 26q0 28 -28 28q-26 0 -26 -28zM396 774q0 -26 26 -26q28 0 28 26q0 28 -28 28q-26 0 -26 -28z" />
<glyph unicode="&#xd8;" d="M52 -374v1638h658v-1638l-330 216zM174 338q-2 -174 46 -262l-22 -54q-8 -16 7 -24t29 6l14 34q38 -40 96 -40q94 4 139 97t51 235q4 80 -8 153t-38 125l28 66q4 6 0 12t-11 9t-15 3t-10 -6l-18 -42q-40 52 -96 52q-52 -2 -88 -35t-59 -86t-33 -117t-12 -126zM218 338 q0 42 7 97t23 104t45 83t73 36q44 0 76 -56l-198 -470q-30 72 -26 206zM268 86l196 464q14 -42 21 -97t5 -119q-4 -138 -41 -217t-103 -77q-48 0 -78 46z" />
<glyph unicode="&#xd9;" d="M52 -374v1638h658v-1638l-330 216zM170 680q2 -104 4 -203t12 -185q14 -126 52 -207t116 -83q46 0 80 22t57 61t37 92t22 117q12 90 17 195t7 195q0 8 -6 13t-15 5t-15 -4t-6 -14q0 -24 -1 -65t-4 -92t-7 -109t-12 -114q-8 -52 -20 -99t-30 -82t-43 -56t-57 -21 q-58 2 -87 72t-41 186q-10 78 -12 173t-2 199q2 12 -5 18t-16 6t-17 -5t-8 -15zM348 840l30 -62q10 -16 28 -11t8 27l-30 66q-8 14 -27 6t-9 -26z" />
<glyph unicode="&#xda;" d="M52 -374v1638h658v-1638l-330 216zM170 680q2 -104 4 -203t12 -185q14 -126 52 -207t116 -83q46 0 80 22t57 61t37 92t22 117q12 90 17 195t7 195q0 8 -6 13t-15 5t-15 -4t-6 -14q0 -24 -1 -65t-4 -92t-7 -109t-12 -114q-8 -52 -20 -99t-30 -82t-43 -56t-57 -21 q-58 2 -87 72t-41 186q-10 78 -12 173t-2 199q2 12 -5 18t-16 6t-17 -5t-8 -15zM345 775q3 -7 10 -10t15 0t12 11l32 62q6 8 2 15t-12 10t-16 2t-10 -7l-32 -66q-4 -10 -1 -17z" />
<glyph unicode="&#xdb;" d="M52 -374v1638h658v-1638l-330 216zM170 680q2 -104 4 -203t12 -185q14 -126 52 -207t116 -83q46 0 80 22t57 61t37 92t22 117q12 90 17 195t7 195q0 8 -6 13t-15 5t-15 -4t-6 -14q0 -24 -1 -65t-4 -92t-7 -109t-12 -114q-8 -52 -20 -99t-30 -82t-43 -56t-57 -21 q-58 2 -87 72t-41 186q-10 78 -12 173t-2 199q2 12 -5 18t-16 6t-17 -5t-8 -15zM322 793q4 -7 11 -10t15 -2t12 9l22 46l24 -44q8 -16 24 -6t12 22l-32 66q-6 14 -25 18t-29 -18l-34 -66q-4 -8 0 -15z" />
<glyph unicode="&#xdc;" d="M52 -374v1638h658v-1638l-330 216zM170 680q2 -104 4 -203t12 -185q14 -126 52 -207t116 -83q46 0 80 22t57 61t37 92t22 117q12 90 17 195t7 195q0 8 -6 13t-15 5t-15 -4t-6 -14q0 -24 -1 -65t-4 -92t-7 -109t-12 -114q-8 -52 -20 -99t-30 -82t-43 -56t-57 -21 q-58 2 -87 72t-41 186q-10 78 -12 173t-2 199q2 12 -5 18t-16 6t-17 -5t-8 -15zM312 774q0 -26 26 -26q28 0 28 26q0 28 -28 28q-26 0 -26 -28zM396 774q0 -26 26 -26q28 0 28 26q0 28 -28 28q-26 0 -26 -28z" />
<glyph unicode="&#xdd;" d="M52 -374v1638h658v-1638l-330 216zM142 676l212 -334v-328q0 -6 7 -10t15 -4t15 3t5 9v336l216 324q12 20 -6 30t-34 -12l-198 -292l-192 294q-4 6 -11 8t-14 0t-12 -9t-3 -15zM345 775q3 -7 10 -10t15 0t12 11l32 62q6 8 2 15t-12 10t-16 2t-10 -7l-32 -66 q-4 -10 -1 -17z" />
<glyph unicode="&#xde;" d="M52 -374v1638h658v-1638l-330 216zM256 674q-2 -140 1 -314t3 -352q4 -20 20 -18t20 12q0 2 1 14t1 25t1 25t1 14h4q50 0 94 17t74 51t43 83t1 113q-8 36 -32 65t-57 48t-69 29t-68 10l-2 184q0 8 -6 12t-14 4t-13 -6t-3 -16zM298 456q22 -2 50 -8t54 -20t47 -38t31 -64 q10 -44 -1 -84t-37 -69t-62 -43t-76 -4q0 90 -2 165t-4 165z" />
<glyph unicode="&#xdf;" d="M52 -374v1638h658v-1638l-330 216z" />
<glyph unicode="&#xe0;" d="M52 -134v1398h658v-1398l-330 216zM170 264q-4 -22 15 -26t27 12l62 248q14 2 44 1t62 -2t61 -1h45l70 -244q2 -10 9 -13t15 -1t14 8t4 16l-192 658q-4 12 -13 18t-20 6t-20 -7t-11 -19zM286 542l88 338l100 -340q-14 -2 -39 -1t-54 2t-55 1h-40zM348 1060l30 -62 q10 -16 28 -11t8 27l-30 66q-8 14 -27 6t-9 -26z" />
<glyph unicode="&#xe1;" d="M52 -134v1398h658v-1398l-330 216zM170 264q-4 -22 15 -26t27 12l62 248q14 2 44 1t62 -2t61 -1h45l70 -244q2 -10 9 -13t15 -1t14 8t4 16l-192 658q-4 12 -13 18t-20 6t-20 -7t-11 -19zM286 542l88 338l100 -340q-14 -2 -39 -1t-54 2t-55 1h-40zM345 989q3 -7 10 -10 t15 0t12 11l32 62q6 8 2 15t-12 10t-16 2t-10 -7l-32 -66q-4 -10 -1 -17z" />
<glyph unicode="&#xe2;" d="M52 -134v1398h658v-1398l-330 216zM170 264q-4 -22 15 -26t27 12l62 248q14 2 44 1t62 -2t61 -1h45l70 -244q2 -10 9 -13t15 -1t14 8t4 16l-192 658q-4 12 -13 18t-20 6t-20 -7t-11 -19zM286 542l88 338l100 -340q-14 -2 -39 -1t-54 2t-55 1h-40zM322 991q4 -7 11 -10 t15 -2t12 9l22 46l24 -44q8 -16 24 -6t12 22l-32 66q-6 14 -25 18t-29 -18l-34 -66q-4 -8 0 -15z" />
<glyph unicode="&#xe3;" d="M52 -134v1398h658v-1398l-330 216zM170 264q-4 -22 15 -26t27 12l62 248q14 2 44 1t62 -2t61 -1h45l70 -244q2 -10 9 -13t15 -1t14 8t4 16l-192 658q-4 12 -13 18t-20 6t-20 -7t-11 -19zM250 1008q4 -20 21 -18t19 18q8 12 13 21t21 11q14 0 25 -8t23 -17t27 -17t37 -8 q28 2 47 24t23 44q4 18 -13 25t-23 -11q-12 -38 -40 -42q-10 0 -21 8t-24 19t-29 19t-34 6q-28 -2 -48 -24t-24 -50zM286 542l88 338l100 -340q-14 -2 -39 -1t-54 2t-55 1h-40z" />
<glyph unicode="&#xe4;" d="M52 -134v1398h658v-1398l-330 216zM170 264q-4 -22 15 -26t27 12l62 248q14 2 44 1t62 -2t61 -1h45l70 -244q2 -10 9 -13t15 -1t14 8t4 16l-192 658q-4 12 -13 18t-20 6t-20 -7t-11 -19zM286 542l88 338l100 -340q-14 -2 -39 -1t-54 2t-55 1h-40zM312 1004q0 -26 26 -26 q28 0 28 26q0 28 -28 28q-26 0 -26 -28zM396 1004q0 -26 26 -26q28 0 28 26q0 28 -28 28q-26 0 -26 -28z" />
<glyph unicode="&#xe5;" d="M52 -134v1398h658v-1398l-330 216zM170 264q-4 -22 15 -26t27 12l62 248q14 2 44 1t62 -2t61 -1h45l70 -244q2 -10 9 -13t15 -1t14 8t4 16l-192 658q-4 12 -13 18t-20 6t-20 -7t-11 -19zM286 542l88 338l100 -340q-14 -2 -39 -1t-54 2t-55 1h-40zM332 1022q0 -22 14 -36 t34 -14q22 0 36 14t14 36t-14 36t-36 14q-20 0 -34 -14t-14 -36zM360 1022q0 18 20 18q18 0 18 -18t-18 -18q-20 0 -20 18z" />
<glyph unicode="&#xe6;" d="M52 -374v1638h658v-1638l-330 216zM94 22q-6 -22 14 -27t28 11l122 286q22 2 53 1t59 -1q2 -76 3 -137t1 -77v-43t16 -31q14 -2 50 -2h76t75 1t51 1q16 4 13 22t-13 18q-16 0 -48 -1t-67 -1h-66t-47 2q0 30 -1 56t-1 54t1 63t1 81h38t65 1t65 1h38q16 6 17 21t-19 19h-38 t-64 -1t-64 -1h-38q-2 84 -5 160t3 160l2 4h220q22 -2 25 17t-19 23l-220 -2q-16 0 -32 -7t-20 -23zM272 336l96 220v-103t2 -115z" />
<glyph unicode="&#xe7;" d="M52 -374v1638h658v-1638l-330 216z" />
<glyph unicode="&#xe8;" d="M52 -134v1398h658v-1398l-330 216zM224 723q0 -59 1 -125t2 -123t1 -100v-57t1 -43t17 -31q14 -2 50 -2h76t75 1t51 1q16 4 12 22t-14 18q-16 0 -47 -1t-66 -1h-67t-48 2v254h38t65 1t65 1h38q16 6 17 21t-17 19h-38t-65 -1t-65 -1h-38q-2 86 -5 162t5 162h222 q22 -2 24 17t-18 23l-222 -2q-28 0 -37 -11t-11 -39q-2 -18 -2 -63v-104zM348 1060l30 -62q10 -16 28 -11t8 27l-30 66q-8 14 -27 6t-9 -26z" />
<glyph unicode="&#xe9;" d="M52 -134v1398h658v-1398l-330 216zM224 723q0 -59 1 -125t2 -123t1 -100v-57t1 -43t17 -31q14 -2 50 -2h76t75 1t51 1q16 4 12 22t-14 18q-16 0 -47 -1t-66 -1h-67t-48 2v254h38t65 1t65 1h38q16 6 17 21t-17 19h-38t-65 -1t-65 -1h-38q-2 86 -5 162t5 162h222 q22 -2 24 17t-18 23l-222 -2q-28 0 -37 -11t-11 -39q-2 -18 -2 -63v-104zM345 989q3 -7 10 -10t15 0t12 11l32 62q6 8 2 15t-12 10t-16 2t-10 -7l-32 -66q-4 -10 -1 -17z" />
<glyph unicode="&#xea;" d="M52 -134v1398h658v-1398l-330 216zM224 723q0 -59 1 -125t2 -123t1 -100v-57t1 -43t17 -31q14 -2 50 -2h76t75 1t51 1q16 4 12 22t-14 18q-16 0 -47 -1t-66 -1h-67t-48 2v254h38t65 1t65 1h38q16 6 17 21t-17 19h-38t-65 -1t-65 -1h-38q-2 86 -5 162t5 162h222 q22 -2 24 17t-18 23l-222 -2q-28 0 -37 -11t-11 -39q-2 -18 -2 -63v-104zM322 991q4 -7 11 -10t15 -2t12 9l22 46l24 -44q8 -16 24 -6t12 22l-32 66q-6 14 -25 18t-29 -18l-34 -66q-4 -8 0 -15z" />
<glyph unicode="&#xeb;" d="M52 -134v1398h658v-1398l-330 216zM224 723q0 -59 1 -125t2 -123t1 -100v-57t1 -43t17 -31q14 -2 50 -2h76t75 1t51 1q16 4 12 22t-14 18q-16 0 -47 -1t-66 -1h-67t-48 2v254h38t65 1t65 1h38q16 6 17 21t-17 19h-38t-65 -1t-65 -1h-38q-2 86 -5 162t5 162h222 q22 -2 24 17t-18 23l-222 -2q-28 0 -37 -11t-11 -39q-2 -18 -2 -63v-104zM312 1004q0 -26 26 -26q28 0 28 26q0 28 -28 28q-26 0 -26 -28zM396 1004q0 -26 26 -26q28 0 28 26q0 28 -28 28q-26 0 -26 -28z" />
<glyph unicode="&#xec;" d="M52 -134v1398h658v-1398l-330 216zM203 265q-1 -17 15 -25l320 2q8 0 12 6t5 13t-3 14t-10 7l-146 -2v618l146 2q8 0 12 6t4 13t-4 14t-10 7l-320 -2q-18 2 -19 -15t15 -25h136v-618h-136q-16 2 -17 -15zM348 1060l30 -62q10 -16 28 -11t8 27l-30 66q-8 14 -27 6t-9 -26z " />
<glyph unicode="&#xed;" d="M52 -134v1398h658v-1398l-330 216zM203 265q-1 -17 15 -25l320 2q8 0 12 6t5 13t-3 14t-10 7l-146 -2v618l146 2q8 0 12 6t4 13t-4 14t-10 7l-320 -2q-18 2 -19 -15t15 -25h136v-618h-136q-16 2 -17 -15zM345 989q3 -7 10 -10t15 0t12 11l32 62q6 8 2 15t-12 10t-16 2 t-10 -7l-32 -66q-4 -10 -1 -17z" />
<glyph unicode="&#xee;" d="M52 -134v1398h658v-1398l-330 216zM203 265q-1 -17 15 -25l320 2q8 0 12 6t5 13t-3 14t-10 7l-146 -2v618l146 2q8 0 12 6t4 13t-4 14t-10 7l-320 -2q-18 2 -19 -15t15 -25h136v-618h-136q-16 2 -17 -15zM322 991q4 -7 11 -10t15 -2t12 9l22 46l24 -44q8 -16 24 -6t12 22 l-32 66q-6 14 -25 18t-29 -18l-34 -66q-4 -8 0 -15z" />
<glyph unicode="&#xef;" d="M52 -134v1398h658v-1398l-330 216zM203 265q-1 -17 15 -25l320 2q8 0 12 6t5 13t-3 14t-10 7l-146 -2v618l146 2q8 0 12 6t4 13t-4 14t-10 7l-320 -2q-18 2 -19 -15t15 -25h136v-618h-136q-16 2 -17 -15zM312 1004q0 -26 26 -26q28 0 28 26q0 28 -28 28q-26 0 -26 -28z M396 1004q0 -26 26 -26q28 0 28 26q0 28 -28 28q-26 0 -26 -28z" />
<glyph unicode="&#xf1;" d="M52 -134v1398h658v-1398l-330 216zM146 262q0 -14 7 -20t16 -7t17 4t8 13l-8 606l346 -602q14 -24 34 -24t22 24v662q0 14 -7 19t-16 4t-15 -8t-2 -19l-6 -586l-348 604q-10 16 -30 14t-18 -28v-656zM250 1008q4 -20 21 -18t19 18q8 12 13 21t21 11q14 0 25 -8t23 -17 t27 -17t37 -8q28 2 47 24t23 44q4 18 -13 25t-23 -11q-12 -38 -40 -42q-10 0 -21 8t-24 19t-29 19t-34 6q-28 -2 -48 -24t-24 -50z" />
<glyph unicode="&#xf2;" d="M52 -134v1398h658v-1398l-330 216zM200 578q-4 -166 42 -255t128 -85q94 4 139 97t51 235q2 74 -7 141t-30 119t-54 82t-77 30q-52 -2 -88 -35t-59 -86t-33 -117t-12 -126zM244 578q0 42 7 97t23 104t45 83t73 36q30 0 53 -24t40 -67t25 -103t6 -130q-4 -138 -41 -217 t-103 -77q-64 0 -98 80t-30 218zM348 1060l30 -62q10 -16 28 -11t8 27l-30 66q-8 14 -27 6t-9 -26z" />
<glyph unicode="&#xf3;" d="M52 -134v1398h658v-1398l-330 216zM200 578q-4 -166 42 -255t128 -85q94 4 139 97t51 235q2 74 -7 141t-30 119t-54 82t-77 30q-52 -2 -88 -35t-59 -86t-33 -117t-12 -126zM244 578q0 42 7 97t23 104t45 83t73 36q30 0 53 -24t40 -67t25 -103t6 -130q-4 -138 -41 -217 t-103 -77q-64 0 -98 80t-30 218zM345 989q3 -7 10 -10t15 0t12 11l32 62q6 8 2 15t-12 10t-16 2t-10 -7l-32 -66q-4 -10 -1 -17z" />
<glyph unicode="&#xf4;" d="M52 -134v1398h658v-1398l-330 216zM200 578q-4 -166 42 -255t128 -85q94 4 139 97t51 235q2 74 -7 141t-30 119t-54 82t-77 30q-52 -2 -88 -35t-59 -86t-33 -117t-12 -126zM244 578q0 42 7 97t23 104t45 83t73 36q30 0 53 -24t40 -67t25 -103t6 -130q-4 -138 -41 -217 t-103 -77q-64 0 -98 80t-30 218zM322 991q4 -7 11 -10t15 -2t12 9l22 46l24 -44q8 -16 24 -6t12 22l-32 66q-6 14 -25 18t-29 -18l-34 -66q-4 -8 0 -15z" />
<glyph unicode="&#xf5;" d="M52 -134v1398h658v-1398l-330 216zM200 578q-4 -166 42 -255t128 -85q94 4 139 97t51 235q2 74 -7 141t-30 119t-54 82t-77 30q-52 -2 -88 -35t-59 -86t-33 -117t-12 -126zM244 578q0 42 7 97t23 104t45 83t73 36q30 0 53 -24t40 -67t25 -103t6 -130q-4 -138 -41 -217 t-103 -77q-64 0 -98 80t-30 218zM250 1008q4 -20 21 -18t19 18q8 12 13 21t21 11q14 0 25 -8t23 -17t27 -17t37 -8q28 2 47 24t23 44q4 18 -13 25t-23 -11q-12 -38 -40 -42q-10 0 -21 8t-24 19t-29 19t-34 6q-28 -2 -48 -24t-24 -50z" />
<glyph unicode="&#xf6;" d="M52 -134v1398h658v-1398l-330 216zM200 578q-4 -166 42 -255t128 -85q94 4 139 97t51 235q2 74 -7 141t-30 119t-54 82t-77 30q-52 -2 -88 -35t-59 -86t-33 -117t-12 -126zM244 578q0 42 7 97t23 104t45 83t73 36q30 0 53 -24t40 -67t25 -103t6 -130q-4 -138 -41 -217 t-103 -77q-64 0 -98 80t-30 218zM312 1004q0 -26 26 -26q28 0 28 26q0 28 -28 28q-26 0 -26 -28zM396 1004q0 -26 26 -26q28 0 28 26q0 28 -28 28q-26 0 -26 -28z" />
<glyph unicode="&#xf8;" d="M52 -374v1638h658v-1638l-330 216zM174 338q-2 -174 46 -262l-22 -54q-8 -16 7 -24t29 6l14 34q38 -40 96 -40q94 4 139 97t51 235q4 80 -8 153t-38 125l28 66q4 6 0 12t-11 9t-15 3t-10 -6l-18 -42q-40 52 -96 52q-52 -2 -88 -35t-59 -86t-33 -117t-12 -126zM218 338 q0 42 7 97t23 104t45 83t73 36q44 0 76 -56l-198 -470q-30 72 -26 206zM268 86l196 464q14 -42 21 -97t5 -119q-4 -138 -41 -217t-103 -77q-48 0 -78 46z" />
<glyph unicode="&#xf9;" d="M52 -134v1398h658v-1398l-330 216zM170 920q2 -104 4 -203t12 -185q14 -126 52 -207t116 -83q46 0 80 22t57 61t37 92t22 117q12 90 17 195t7 195q0 8 -6 13t-15 5t-15 -4t-6 -14q0 -24 -1 -65t-4 -92t-7 -109t-12 -114q-8 -52 -20 -99t-30 -82t-43 -56t-57 -21 q-58 2 -87 72t-41 186q-10 78 -12 173t-2 199q2 12 -5 18t-16 6t-17 -5t-8 -15zM348 1060l30 -62q10 -16 28 -11t8 27l-30 66q-8 14 -27 6t-9 -26z" />
<glyph unicode="&#xfa;" d="M52 -134v1398h658v-1398l-330 216zM170 920q2 -104 4 -203t12 -185q14 -126 52 -207t116 -83q46 0 80 22t57 61t37 92t22 117q12 90 17 195t7 195q0 8 -6 13t-15 5t-15 -4t-6 -14q0 -24 -1 -65t-4 -92t-7 -109t-12 -114q-8 -52 -20 -99t-30 -82t-43 -56t-57 -21 q-58 2 -87 72t-41 186q-10 78 -12 173t-2 199q2 12 -5 18t-16 6t-17 -5t-8 -15zM345 989q3 -7 10 -10t15 0t12 11l32 62q6 8 2 15t-12 10t-16 2t-10 -7l-32 -66q-4 -10 -1 -17z" />
<glyph unicode="&#xfb;" d="M52 -134v1398h658v-1398l-330 216zM170 920q2 -104 4 -203t12 -185q14 -126 52 -207t116 -83q46 0 80 22t57 61t37 92t22 117q12 90 17 195t7 195q0 8 -6 13t-15 5t-15 -4t-6 -14q0 -24 -1 -65t-4 -92t-7 -109t-12 -114q-8 -52 -20 -99t-30 -82t-43 -56t-57 -21 q-58 2 -87 72t-41 186q-10 78 -12 173t-2 199q2 12 -5 18t-16 6t-17 -5t-8 -15zM322 991q4 -7 11 -10t15 -2t12 9l22 46l24 -44q8 -16 24 -6t12 22l-32 66q-6 14 -25 18t-29 -18l-34 -66q-4 -8 0 -15z" />
<glyph unicode="&#xfc;" d="M52 -134v1398h658v-1398l-330 216zM170 920q2 -104 4 -203t12 -185q14 -126 52 -207t116 -83q46 0 80 22t57 61t37 92t22 117q12 90 17 195t7 195q0 8 -6 13t-15 5t-15 -4t-6 -14q0 -24 -1 -65t-4 -92t-7 -109t-12 -114q-8 -52 -20 -99t-30 -82t-43 -56t-57 -21 q-58 2 -87 72t-41 186q-10 78 -12 173t-2 199q2 12 -5 18t-16 6t-17 -5t-8 -15zM312 1004q0 -26 26 -26q28 0 28 26q0 28 -28 28q-26 0 -26 -28zM396 1004q0 -26 26 -26q28 0 28 26q0 28 -28 28q-26 0 -26 -28z" />
<glyph unicode="&#xfd;" d="M52 -134v1398h658v-1398l-330 216zM142 916l212 -334v-328q0 -6 7 -10t15 -4t15 3t5 9v336l216 324q12 20 -6 30t-34 -12l-198 -292l-192 294q-4 6 -11 8t-14 0t-12 -9t-3 -15zM345 989q3 -7 10 -10t15 0t12 11l32 62q6 8 2 15t-12 10t-16 2t-10 -7l-32 -66 q-4 -10 -1 -17z" />
<glyph unicode="&#xfe;" d="M52 -374v1638h658v-1638l-330 216zM226 674q-2 -140 1 -314t3 -352q4 -20 20 -18t20 12q0 2 1 14t1 25t1 25t1 14h4q50 0 94 17t74 51t43 83t1 113q-8 36 -32 65t-57 48t-69 29t-68 10l-2 184q0 8 -6 12t-14 4t-13 -6t-3 -16zM268 456q22 -2 50 -8t54 -20t47 -38t31 -64 q10 -44 -1 -84t-37 -69t-62 -43t-76 -4q0 90 -2 165t-4 165z" />
<glyph unicode="&#xff;" d="M52 -134v1398h658v-1398l-330 216zM142 916l212 -334v-328q0 -6 7 -10t15 -4t15 3t5 9v336l216 324q12 20 -6 30t-34 -12l-198 -292l-192 294q-4 6 -11 8t-14 0t-12 -9t-3 -15zM312 1004q0 -26 26 -26q28 0 28 26q0 28 -28 28q-26 0 -26 -28zM396 1004q0 -26 26 -26 q28 0 28 26q0 28 -28 28q-26 0 -26 -28z" />
<glyph unicode="&#x152;" d="M52 -374v1638h658v-1638l-330 216zM120 340q-4 -172 44 -257t140 -81h53h74t73 1t50 1q16 4 12 22t-14 18q-16 0 -47 -1t-66 -1h-67t-48 2v254h38t65 1t65 1h38q16 6 17 21t-17 19h-38t-65 -1t-65 -1h-38q-2 86 -5 162t5 162h222q22 -2 24 17t-18 23q-88 0 -136 -1 t-71 -1t-29 -1t-8 -1q-52 -4 -87 -36t-57 -83t-32 -114t-12 -125zM164 340q0 38 6 87t19 94t36 80t57 47q-2 -24 -2 -73v-111t1 -129t2 -126t1 -104v-61q-62 8 -93 86t-27 210z" />
<glyph unicode="&#x153;" d="M52 -374v1638h658v-1638l-330 216zM198 318q0 -40 4 -93t17 -101t38 -84t65 -40q36 0 73 -1t73 1q16 6 12 24t-14 16l-114 4q0 30 -1 56t-1 54t1 63t1 81q16 0 37 1t37 1q16 4 17 20t-19 20q-16 0 -36 -1t-36 -1v324h108q22 -2 25 17t-19 23l-108 -2q-56 2 -88 -40 t-48 -103t-20 -127t-4 -112zM238 320q0 24 2 70t10 96t22 94t38 64q2 -160 1 -307t-1 -291q-18 8 -32 40t-23 74t-13 86t-4 74z" />
<glyph unicode="&#x178;" d="M52 -374v1638h658v-1638l-330 216zM142 676l212 -334v-328q0 -6 7 -10t15 -4t15 3t5 9v336l216 324q12 20 -6 30t-34 -12l-198 -292l-192 294q-4 6 -11 8t-14 0t-12 -9t-3 -15zM312 774q0 -26 26 -26q28 0 28 26q0 28 -28 28q-26 0 -26 -28zM396 774q0 -26 26 -26 q28 0 28 26q0 28 -28 28q-26 0 -26 -28z" />
<glyph unicode="&#x2c6;" horiz-adv-x="152" d="M16 991q-4 7 0 15l34 66q10 22 29 18t25 -18l32 -66q4 -12 -12 -22t-24 6l-24 44l-22 -46q-4 -8 -12 -9t-15 2t-11 10z" />
<glyph unicode="&#x2dc;" horiz-adv-x="286" d="M16 1008q4 28 24 50t48 24q18 2 34 -6t29 -19t24 -19t21 -8q28 4 40 42q6 18 23 11t13 -25q-4 -22 -23 -44t-47 -24q-22 0 -37 8t-27 17t-23 17t-25 8q-16 -2 -21 -11t-13 -21q-2 -16 -19 -18t-21 18z" />
<glyph unicode="&#x2000;" horiz-adv-x="682" />
<glyph unicode="&#x2001;" horiz-adv-x="1365" />
<glyph unicode="&#x2002;" horiz-adv-x="682" />
<glyph unicode="&#x2003;" horiz-adv-x="1365" />
<glyph unicode="&#x2004;" horiz-adv-x="455" />
<glyph unicode="&#x2005;" horiz-adv-x="341" />
<glyph unicode="&#x2006;" horiz-adv-x="227" />
<glyph unicode="&#x2007;" horiz-adv-x="227" />
<glyph unicode="&#x2008;" horiz-adv-x="170" />
<glyph unicode="&#x2009;" horiz-adv-x="273" />
<glyph unicode="&#x200a;" horiz-adv-x="75" />
<glyph unicode="&#x2010;" d="M52 -374v1638h658v-1638l-330 216zM253 354q-1 -18 15 -24h184q16 0 17 20t-13 20h-186q-16 2 -17 -16z" />
<glyph unicode="&#x2011;" d="M52 -374v1638h658v-1638l-330 216zM253 354q-1 -18 15 -24h184q16 0 17 20t-13 20h-186q-16 2 -17 -16z" />
<glyph unicode="&#x2012;" d="M52 -374v1638h658v-1638l-330 216zM253 354q-1 -18 15 -24h184q16 0 17 20t-13 20h-186q-16 2 -17 -16z" />
<glyph unicode="&#x2013;" horiz-adv-x="1128" d="M52 -374v1638h1024v-1638l-514 216zM364.5 354q-1.5 -18 23.5 -24h286q25 0 27 20t-20 20h-290q-25 2 -26.5 -16z" />
<glyph unicode="&#x2014;" horiz-adv-x="2152" d="M52 -374v1638h2048v-1638l-1027 216zM677.5 354q-3.5 -18 46.5 -24h573q50 0 53 20t-41 20h-578q-50 2 -53.5 -16z" />
<glyph unicode="&#x2018;" d="M52 -374v1638h658v-1638l-330 216zM326 635q2 -33 18 -49q6 -8 16 -9t16 3t8 11t-6 13q-14 10 -16 34t8 40t-5 28t-25 -6q-16 -32 -14 -65z" />
<glyph unicode="&#x2019;" d="M52 -374v1638h658v-1638l-330 216zM334 697q-2 -7 6 -13q14 -10 16 -34t-8 -40t5 -28t25 6q16 32 14 65t-18 49q-6 8 -16 9t-16 -3t-8 -11z" />
<glyph unicode="&#x201a;" d="M52 -374v1638h658v-1638l-330 216zM356 81q-2 -7 6 -13q14 -10 16 -34t-8 -40t5 -28t25 6q16 32 14 65t-18 49q-6 8 -16 9t-16 -3t-8 -11z" />
<glyph unicode="&#x201c;" d="M52 -374v1638h658v-1638l-330 216zM266 645q2 -33 18 -49q8 -8 17 -8t16 4t8 11t-7 13q-12 10 -15 33t7 39q10 18 -5 29t-25 -7q-16 -32 -14 -65zM346 651q2 -33 18 -49q6 -8 16 -9t16 3t8 11t-6 13q-14 10 -16 34t8 40t-5 28t-25 -6q-16 -32 -14 -65z" />
<glyph unicode="&#x201d;" d="M52 -374v1638h658v-1638l-330 216zM274 709q-2 -7 6 -13q14 -10 16 -34t-8 -40t5 -28t25 6q16 32 14 65t-18 49q-6 8 -16 9t-16 -3t-8 -11zM360 700q12 -10 15 -33t-7 -39q-10 -18 5 -29t25 7q16 32 14 65t-18 49q-16 14 -33 4t-1 -24z" />
<glyph unicode="&#x201e;" d="M52 -374v1638h658v-1638l-330 216zM310 79q-2 -7 6 -13q14 -10 16 -34t-8 -40t5 -28t25 6q16 32 14 65t-18 49q-6 8 -16 9t-16 -3t-8 -11zM396 70q12 -10 15 -33t-7 -39q-10 -18 5 -29t25 7q16 32 14 65t-18 49q-16 14 -33 4t-1 -24z" />
<glyph unicode="&#x202f;" horiz-adv-x="273" />
<glyph unicode="&#x205f;" horiz-adv-x="341" />
<glyph unicode="&#x20ac;" d="M52 -374v1638h658v-1638l-330 216zM211 305q-1 -17 15 -25h38q2 -44 8 -94t18 -92t32 -70t50 -28t47 20t24 54t8 77t1 85q-2 22 -19 24t-21 -20q-2 -26 -2 -59t-2 -63t-10 -51t-24 -21q-14 -2 -25 19t-20 56t-15 78t-8 85l134 4q8 0 12 6t4 13t-4 14t-10 7l-136 -4 q-4 28 0 50l136 4q8 0 12 6t4 13t-4 14t-10 7l-138 -4q2 32 5 74t11 81t22 66t36 27q12 0 19 -13t11 -33t5 -43t3 -43q0 -20 19 -19t19 15q-2 26 -4 58t-9 58t-21 44t-40 18q-40 0 -63 -32t-35 -77t-16 -95t-4 -86h-32q-18 2 -19 -15t15 -25h34v-50h-32q-18 2 -19 -15z" />
<glyph unicode="&#x25fc;" horiz-adv-x="1260" d="M0 0v1260h1260v-1260h-1260z" />
</font>
</defs>
</svg>
